<?xml version="1.0" standalone="no"?><!-- Generator: Gravit.io --><svg xmlns="http://www.w3.org/2000/svg" xmlns:xlink="http://www.w3.org/1999/xlink" style="isolation:isolate" viewBox="0 0 256 256" width="256" height="256"><defs><clipPath id="_clipPath_zB779obFclQhzbc4fIGwPbcwJKXPa4DO"><rect width="256" height="256"/></clipPath></defs><g clip-path="url(#_clipPath_zB779obFclQhzbc4fIGwPbcwJKXPa4DO)"><g><polygon points="64,73.901,128,36.95,192,73.901,192,147.802,128,184.752,64,147.802" fill="rgb(235,235,235)"/><path d=" M 16 120.089 L 128 184.752 L 128 129.326 L 16 64.663 L 16 120.089 Z " fill="rgb(255,255,255)"/><path d=" M 128 184.752 L 240 120.089 L 240 64.663 L 128 129.326 L 128 184.752 Z " fill="rgb(0,150,136)"/><path d=" M 16 64.663 L 128 129.326 L 240 64.663 L 128 0 L 16 64.663 Z " fill="rgb(185,185,185)"/></g><path d=" M 240 196.693 L 240 193.997 L 240 196.693 L 240 196.693 Z  M 64.55 240.178 L 64.55 240.178 L 64.55 240.178 Q 57.474 240.178 53.517 235.697 L 53.517 235.697 L 53.517 235.697 Q 49.561 231.216 49.561 223.145 L 49.561 223.145 L 49.561 223.145 Q 49.561 215.166 53.383 210.363 L 53.383 210.363 L 53.383 210.363 Q 57.205 205.56 63.684 205.56 L 63.684 205.56 L 63.684 205.56 Q 69.417 205.56 72.732 209.672 L 72.732 209.672 L 72.732 209.672 Q 76.046 213.785 76.046 220.843 L 76.046 220.843 L 76.046 223.298 L 52.666 223.298 L 52.666 223.298 Q 52.726 230.173 55.787 233.794 L 55.787 233.794 L 55.787 233.794 Q 58.847 237.416 64.55 237.416 L 64.55 237.416 L 64.55 237.416 Q 67.327 237.416 69.432 237.017 L 69.432 237.017 L 69.432 237.017 Q 71.537 236.618 74.762 235.298 L 74.762 235.298 L 74.762 238.06 L 74.762 238.06 Q 72.015 239.288 69.686 239.733 L 69.686 239.733 L 69.686 239.733 Q 67.357 240.178 64.55 240.178 Z  M 63.684 208.26 L 63.684 208.26 L 63.684 208.26 Q 58.997 208.26 56.16 211.437 L 56.16 211.437 L 56.16 211.437 Q 53.323 214.613 52.846 220.598 L 52.846 220.598 L 72.911 220.598 L 72.911 220.598 Q 72.911 214.797 70.462 211.529 L 70.462 211.529 L 70.462 211.529 Q 68.014 208.26 63.684 208.26 Z  M 97.783 205.56 L 97.783 205.56 L 97.783 205.56 Q 99.843 205.56 102.202 205.989 L 102.202 205.989 L 101.635 208.905 L 101.635 208.905 Q 99.604 208.383 97.425 208.383 L 97.425 208.383 L 97.425 208.383 Q 93.274 208.383 90.617 212.005 L 90.617 212.005 L 90.617 212.005 Q 87.959 215.626 87.959 221.15 L 87.959 221.15 L 87.959 239.564 L 85.003 239.564 L 85.003 206.204 L 87.512 206.204 L 87.81 212.219 L 88.019 212.219 L 88.019 212.219 Q 90.02 208.537 92.289 207.048 L 92.289 207.048 L 92.289 207.048 Q 94.558 205.56 97.783 205.56 Z  M 121.58 205.56 L 121.58 205.56 L 121.58 205.56 Q 123.641 205.56 125.999 205.989 L 125.999 205.989 L 125.432 208.905 L 125.432 208.905 Q 123.402 208.383 121.222 208.383 L 121.222 208.383 L 121.222 208.383 Q 117.072 208.383 114.414 212.005 L 114.414 212.005 L 114.414 212.005 Q 111.757 215.626 111.757 221.15 L 111.757 221.15 L 111.757 239.564 L 108.801 239.564 L 108.801 206.204 L 111.309 206.204 L 111.608 212.219 L 111.817 212.219 L 111.817 212.219 Q 113.817 208.537 116.086 207.048 L 116.086 207.048 L 116.086 207.048 Q 118.356 205.56 121.58 205.56 Z  M 170.041 217.068 L 170.041 217.068 L 170.041 217.068 Q 170.041 227.748 164.846 233.963 L 164.846 233.963 L 164.846 233.963 Q 159.65 240.178 150.513 240.178 L 150.513 240.178 L 150.513 240.178 Q 141.407 240.178 136.211 233.963 L 136.211 233.963 L 136.211 233.963 Q 131.016 227.748 131.016 217.007 L 131.016 217.007 L 131.016 217.007 Q 131.016 206.296 136.256 200.143 L 136.256 200.143 L 136.256 200.143 Q 141.496 193.99 150.573 193.99 L 150.573 193.99 L 150.573 193.99 Q 159.71 193.99 164.875 200.174 L 164.875 200.174 L 164.875 200.174 Q 170.041 206.358 170.041 217.068 Z  M 170.626 196.7 C 188.719 196.698 211.746 196.696 240 196.693 L 240 196.693 L 240 193.997 L 168.466 194.015 Q 168.892 194.473 169.299 194.96 L 169.299 194.96 L 169.299 194.96 Q 169.999 195.799 170.626 196.7 Z  M 130.47 196.707 C 124.394 196.709 120.757 196.71 119.447 196.712 C 63.021 196.779 33.306 196.813 30.302 196.813 L 30.302 196.813 L 30.302 196.813 Q 25.465 196.813 22.599 199.115 L 22.599 199.115 L 22.599 199.115 Q 19.732 201.417 19.732 205.376 L 19.732 205.376 L 19.732 205.376 Q 19.732 207.861 20.613 209.457 L 20.613 209.457 L 20.613 209.457 Q 21.494 211.053 23.495 212.327 L 23.495 212.327 L 23.495 212.327 Q 25.495 213.6 30.362 215.38 L 30.362 215.38 L 30.362 215.38 Q 35.468 217.191 38.036 218.894 L 38.036 218.894 L 38.036 218.894 Q 40.604 220.598 41.783 222.761 L 41.783 222.761 L 41.783 222.761 Q 42.962 224.925 42.962 227.994 L 42.962 227.994 L 42.962 227.994 Q 42.962 233.61 38.946 236.894 L 38.946 236.894 L 38.946 236.894 Q 34.93 240.178 28.272 240.178 L 28.272 240.178 L 28.272 240.178 Q 20.27 240.178 16 238.367 L 16 238.367 L 16 235.237 L 16 235.237 Q 20.718 237.293 28.033 237.293 L 28.033 237.293 L 28.033 237.293 Q 33.408 237.293 36.558 234.761 L 36.558 234.761 L 36.558 234.761 Q 39.708 232.229 39.708 228.117 L 39.708 228.117 L 39.708 228.117 Q 39.708 225.569 38.663 223.897 L 38.663 223.897 L 38.663 223.897 Q 37.618 222.224 35.259 220.843 L 35.259 220.843 L 35.259 220.843 Q 32.9 219.462 28.332 217.866 L 28.332 217.866 L 28.332 217.866 Q 21.643 215.503 19.09 212.757 L 19.09 212.757 L 19.09 212.757 Q 16.537 210.01 16.537 205.437 L 16.537 205.437 L 16.537 205.437 Q 16.537 200.404 20.374 197.228 L 20.374 197.228 L 20.374 197.228 Q 24.211 194.051 30.243 194.051 L 30.243 194.051 L 30.243 194.051 L 132.658 194.025 Q 132.248 194.459 131.856 194.92 L 131.856 194.92 L 131.856 194.92 Q 131.124 195.78 130.47 196.707 Z  M 204.886 239.564 L 201.96 239.564 L 201.96 217.928 L 201.96 217.928 Q 201.96 212.895 199.9 210.608 L 199.9 210.608 L 199.9 210.608 Q 197.84 208.322 193.51 208.322 L 193.51 208.322 L 193.51 208.322 Q 187.688 208.322 184.985 211.345 L 184.985 211.345 L 184.985 211.345 Q 182.283 214.368 182.283 221.15 L 182.283 221.15 L 182.283 239.564 L 179.327 239.564 L 179.327 206.204 L 181.835 206.204 L 182.403 210.777 L 182.582 210.777 L 182.582 210.777 Q 185.747 205.56 193.838 205.56 L 193.838 205.56 L 193.838 205.56 Q 204.886 205.56 204.886 217.744 L 204.886 217.744 L 204.886 239.564 Z  M 228.504 240.178 L 228.504 240.178 L 228.504 240.178 Q 221.428 240.178 217.472 235.697 L 217.472 235.697 L 217.472 235.697 Q 213.515 231.216 213.515 223.145 L 213.515 223.145 L 213.515 223.145 Q 213.515 215.166 217.337 210.363 L 217.337 210.363 L 217.337 210.363 Q 221.159 205.56 227.638 205.56 L 227.638 205.56 L 227.638 205.56 Q 233.371 205.56 236.686 209.672 L 236.686 209.672 L 236.686 209.672 Q 240 213.785 240 220.843 L 240 220.843 L 240 223.298 L 216.621 223.298 L 216.621 223.298 Q 216.68 230.173 219.741 233.794 L 219.741 233.794 L 219.741 233.794 Q 222.801 237.416 228.504 237.416 L 228.504 237.416 L 228.504 237.416 Q 231.281 237.416 233.386 237.017 L 233.386 237.017 L 233.386 237.017 Q 235.491 236.618 238.716 235.298 L 238.716 235.298 L 238.716 238.06 L 238.716 238.06 Q 235.969 239.288 233.64 239.733 L 233.64 239.733 L 233.64 239.733 Q 231.311 240.178 228.504 240.178 Z  M 227.638 208.26 L 227.638 208.26 L 227.638 208.26 Q 222.951 208.26 220.114 211.437 L 220.114 211.437 L 220.114 211.437 Q 217.278 214.613 216.8 220.598 L 216.8 220.598 L 236.865 220.598 L 236.865 220.598 Q 236.865 214.797 234.416 211.529 L 234.416 211.529 L 234.416 211.529 Q 231.968 208.26 227.638 208.26 Z  M 152.429 198.451 L 152.429 235.627 L 150.005 235.627 L 150.005 208.546 L 150.005 208.546 Q 150.005 204.859 150.302 200.892 L 150.302 200.892 L 150.302 200.892 Q 149.931 201.273 149.535 201.629 L 149.535 201.629 L 149.535 201.629 Q 149.139 201.985 141.89 207.808 L 141.89 207.808 L 140.48 206.003 L 150.302 198.451 L 152.429 198.451 Z " fill-rule="evenodd" fill="rgb(255,255,255)"/></g></svg>